<svg version="1.2" xmlns="http://www.w3.org/2000/svg" viewBox="0 0 468 244" width="468" height="244">
	<title>logo_annamaria</title>
	<style>
		.s0 { fill: #784d8e } 
		.s1 { fill: none;stroke: #784d8e;stroke-miterlimit:10;stroke-width: 1.7 } 
	</style>
	<g id="Livello_11">
		<g>
			<path class="s0" d="m260.5 103.4v-2.5c1.5 0 2.6-0.4 3.4-1.2 0.8-0.8 1.5-1.9 2-3.3 0.5-1.4 1.1-3 1.8-4.9l15.4-42h1.8l16.7 42.6c0.4 1 0.8 2.4 1.3 4q0.7 2.4 0.6 4.2c0.8 0 1.7 0 2.5-0.1 0.8 0 1.7 0 2.5-0.1v3.3h-17.1v-2.5c1.9 0 3.1-0.5 3.7-1.3 0.6-0.8 0.8-1.7 0.7-2.8-0.1-1.1-0.4-2.1-0.7-3l-2.6-7-19.5 0.4-2.6 8c-0.4 1.2-0.7 2.1-0.9 2.8-0.3 0.7-0.6 1.5-0.9 2.3 1 0 2 0 3-0.1 1 0 1.9 0 2.9-0.1v3.3zm13.8-19.4h17.3l-5.3-14.3c-0.5-1.5-1.1-3.1-1.7-4.6-0.6-1.5-1.1-3.1-1.7-4.6h-0.1q-0.7 2.1-1.5 4.2c-0.5 1.4-1.1 2.8-1.6 4.3l-5.3 15.1z"/>
			<path class="s0" d="m311.2 103.4v-2.2c1.5 0 2.6-0.4 3.2-1.2 0.6-0.8 0.9-1.8 1-3.2 0.1-1.4 0.2-3 0.2-4.8v-17.1c0-0.8 0-1.6 0.1-2.4 0-0.8 0.1-1.6 0.3-2.5-0.9 0-1.8 0.1-2.7 0.1-0.9 0-1.8 0.1-2.7 0.1v-3.1c2.2 0 3.9 0 5-0.3 1.1-0.2 2-0.4 2.5-0.7 0.5-0.3 1-0.6 1.3-1h2.2c0 0.4 0 0.7 0.1 1.2 0 0.4 0 0.9 0.1 1.5v1.9c1.1-0.9 2.3-1.8 3.6-2.5q2-1.1 4.2-1.8c1.5-0.4 2.9-0.7 4.4-0.7 4.3 0 7.5 1.4 9.5 4.1 2 2.7 3 7 3 12.7v16.6q0 1.2-0.3 2.4c0.8 0 1.6 0 2.4-0.1 0.8 0 1.6 0 2.4-0.1v3.1h-15.3v-2.2c1.5 0 2.6-0.4 3.2-1.2 0.6-0.8 0.9-1.8 1-3.2 0-1.4 0.1-3 0.1-4.8v-10.5c0-4.3-0.8-7.5-2.1-9.7-1.4-2.2-3.5-3.3-6.5-3.2-1.8 0-3.6 0.5-5.3 1.4-1.7 0.9-3.2 2-4.3 3.4v22c0 1 0 1.9-0.1 2.7q0 1.2-0.3 2.4c0.8 0 1.6 0 2.4-0.1 0.8 0 1.6 0 2.4-0.1v3.1h-15.3z"/>
			<path class="s0" d="m356.6 103.4v-2.2c1.5 0 2.6-0.4 3.2-1.2 0.6-0.8 0.9-1.8 1-3.2 0.1-1.4 0.2-3 0.2-4.8v-17.1c0-0.8 0-1.6 0.1-2.4 0-0.8 0.1-1.6 0.3-2.5-0.9 0-1.8 0.1-2.7 0.1-0.9 0-1.8 0.1-2.7 0.1v-3.1c2.2 0 3.9 0 5-0.3 1.1-0.2 2-0.4 2.5-0.7 0.5-0.3 1-0.6 1.3-1h2.2c0 0.4 0 0.7 0.1 1.2 0 0.4 0 0.9 0.1 1.5v1.9c1.1-0.9 2.3-1.8 3.6-2.5q2-1.1 4.2-1.8c1.5-0.4 2.9-0.7 4.4-0.7 4.3 0 7.5 1.4 9.5 4.1 2 2.7 3 7 3 12.7v16.6q0 1.2-0.3 2.4c0.8 0 1.6 0 2.4-0.1 0.8 0 1.6 0 2.4-0.1v3.1h-15.3v-2.2c1.5 0 2.6-0.4 3.2-1.2 0.6-0.8 0.9-1.8 1-3.2 0-1.4 0.1-3 0.1-4.8v-10.5c0-4.3-0.8-7.5-2.1-9.7-1.4-2.2-3.5-3.3-6.5-3.2-1.8 0-3.6 0.5-5.3 1.4-1.7 0.9-3.2 2-4.3 3.4v22c0 1 0 1.9-0.1 2.7q0 1.2-0.3 2.4c0.8 0 1.6 0 2.4-0.1 0.8 0 1.6 0 2.4-0.1v3.1h-15.3z"/>
			<path class="s0" d="m424.8 103.4c-0.2-0.8-0.3-1.6-0.3-2.2 0-0.6-0.1-1.3-0.2-2-1.7 1.7-3.5 3-5.5 4q-3 1.5-6.3 1.5c-3.8 0-6.6-0.9-8.5-2.6-1.8-1.7-2.8-3.8-2.8-6.3 0-2.5 0.7-4.3 2.1-6 1.4-1.7 3.3-3 5.5-4.1 2.3-1.1 4.7-1.9 7.4-2.4 2.7-0.5 5.3-0.8 7.8-0.7v-4.6c0-1.7-0.1-3.4-0.4-4.9-0.3-1.5-0.9-2.8-1.9-3.8-1-1-2.6-1.5-4.8-1.6-1.4 0-2.9 0.2-4.5 0.8-1.5 0.6-2.6 1.6-3.3 3.1 0.4 0.4 0.7 0.9 0.8 1.4 0.1 0.5 0.2 1 0.2 1.5 0 0.5-0.3 1.3-0.7 2.1-0.5 0.8-1.4 1.1-2.6 1.1-1.2 0-1.8-0.4-2.4-1.1-0.5-0.7-0.8-1.6-0.8-2.6 0-1.7 0.6-3.2 1.9-4.6 1.3-1.3 3-2.4 5.3-3.2 2.2-0.8 4.8-1.2 7.6-1.2q6.3 0 9.3 3.3c2 2.2 3 5.7 2.9 10.5v19.3c0 0.8-0.1 1.7-0.2 2.7 0.9 0 1.8-0.1 2.7-0.2 0.9 0 1.8 0 2.7-0.1v3.1h-10.7zm-0.6-18.3c-1.7 0-3.5 0.3-5.4 0.6-1.9 0.4-3.6 0.9-5.2 1.7-1.6 0.7-2.8 1.7-3.8 3-1 1.2-1.4 2.7-1.4 4.5q0.1 2.7 1.8 4.2c1.1 0.9 2.5 1.4 4 1.4 1.5 0 3.8-0.4 5.4-1.2q2.2-1.2 4.5-3.3v-10.8"/>
			<path class="s0" d="m289.6 169.3c-2.2-5-4.4-10-6.7-14.9-2.2-5-4.4-10-6.6-15.1q-1.1-2.4-2.1-4.8c-0.7-1.6-1.3-3.3-1.9-4.9-0.6-1.6-1.3-3.3-1.9-4.9v3.2c0 1.8-0.1 4-0.2 6.5 0 2.5-0.2 5.2-0.3 8.1-0.1 2.9-0.2 5.7-0.2 8.6 0 2.9-0.1 5.6-0.1 8.1 0 2.5 0 2.2-0.1 3.3 0 1.1 0 2.1-0.2 3.1 0.9 0 1.9 0 2.8-0.1 0.9 0 1.9 0 2.8-0.1v3.3h-14.3v-2.5c1.5 0 2.7-0.4 3.4-1 0.7-0.6 1.2-1.5 1.4-2.5 0.2-1 0.3-2.2 0.4-3.4l1.4-34.1c0-1 0-2 0.1-3 0-1 0-2 0.1-2.9-0.9 0-1.8 0-2.7 0.1-0.9 0-1.8 0-2.7 0.1v-3.2h11.5l12.9 29.7c0.6 1.5 1.3 3 1.9 4.5 0.6 1.5 1.3 3 1.9 4.5 0.7 1.5 1.3 3 2 4.6h0.1c0.5-1.3 1.2-3 1.9-4.8 0.7-1.9 1.4-3.5 1.9-4.8q3.3-8.2 6.9-16.5c2.4-5.5 4.7-11.2 7-17.1h11.1v2.5c-1.2 0-2.3 0.2-3.1 0.7-0.8 0.5-1.4 1.4-1.7 2.6-0.4 1.2-0.5 2.8-0.4 4.9l1.9 34.1c0.1 0.8 0.1 1.7 0.1 2.5v2.2c0.9 0 1.8 0 2.7-0.1 0.9 0 1.8 0 2.7-0.1v3.3h-16.8v-2.5c1.5 0 2.7-0.4 3.4-1.1 0.7-0.7 1.2-1.7 1.4-3 0.2-1.3 0.2-2.9 0.1-4.8l-1.5-24.7c0-0.8 0-1.6-0.1-2.4 0-0.8-0.1-1.6-0.1-2.4 0-0.8-0.1-1.6-0.1-2.4-0.2 0.4-0.3 0.7-0.5 1.1-0.2 0.4-0.3 0.8-0.5 1.3l-16.8 41.6h-2.2z"/>
			<path class="s0" d="m352.1 168.6c-0.1-0.8-0.2-1.6-0.3-2.2 0-0.6-0.1-1.3-0.2-2-1.7 1.7-3.5 3-5.5 4q-3 1.5-6.3 1.5c-3.8 0-6.6-0.9-8.5-2.6-1.8-1.7-2.8-3.8-2.8-6.3 0-2.5 0.7-4.3 2.1-6 1.4-1.7 3.3-3 5.5-4.1 2.3-1.1 4.7-1.9 7.4-2.4 2.7-0.5 5.3-0.8 7.8-0.7v-4.6c0-1.7-0.1-3.4-0.4-4.9-0.3-1.5-0.9-2.8-1.9-3.8-1-1-2.6-1.5-4.8-1.6-1.4 0-2.9 0.2-4.5 0.8-1.5 0.6-2.6 1.6-3.3 3.1 0.4 0.4 0.7 0.9 0.8 1.4 0.1 0.5 0.2 1 0.2 1.5 0 0.5-0.2 1.3-0.7 2.1-0.5 0.8-1.4 1.1-2.6 1.1-1.2 0-1.8-0.4-2.4-1.1-0.5-0.7-0.8-1.6-0.8-2.6 0-1.7 0.6-3.2 1.9-4.6 1.3-1.3 3-2.4 5.3-3.2 2.2-0.8 4.8-1.2 7.6-1.2q6.3 0 9.3 3.3c2 2.2 3 5.7 2.9 10.5v19.3c0 0.8-0.1 1.7-0.2 2.7 0.9 0 1.8 0 2.7-0.1 0.9 0 1.8 0 2.7-0.1v3.1h-10.7zm-0.7-18.3c-1.7 0-3.5 0.3-5.4 0.6-1.9 0.4-3.6 0.9-5.2 1.7-1.6 0.7-2.8 1.7-3.8 3-1 1.2-1.4 2.7-1.4 4.5q0.1 2.7 1.8 4.2c1.1 0.9 2.5 1.4 4 1.4 1.5 0 3.8-0.4 5.4-1.2q2.3-1.2 4.5-3.3v-10.8"/>
			<path class="s0" d="m367.9 166.4c1.5 0 2.6-0.4 3.2-1.2 0.6-0.8 0.9-1.8 1-3.2 0-1.4 0.1-3 0.1-4.8v-19.5c0-0.8 0.1-1.6 0.3-2.5-0.9 0-1.8 0-2.7 0.1-0.9 0-1.8 0-2.7 0.1v-3.1h2.3q3.2 0 4.5-0.6c0.8-0.4 1.5-0.9 2.1-1.4h2.2c0 0.8 0.2 1.8 0.2 3 0 1.2 0 2.7 0.1 4.5 0.7-1.2 1.8-2.5 3.1-3.7 1.3-1.2 2.8-2.2 4.4-3q2.4-1.2 5.1-1.2c1.8 0 2.6 0.4 3.7 1.1 1 0.7 1.6 1.9 1.6 3.6 0 1.7-0.1 0.9-0.4 1.5q-0.3 0.9-1.2 1.5c-0.6 0.4-1.3 0.6-2.2 0.6-0.9 0-2-0.5-2.6-1.3-0.6-0.8-0.9-1.8-0.7-2.9-1.2 0-2.5 0.3-3.9 1-1.3 0.7-2.6 1.7-3.7 2.9-1.1 1.2-2.2 2.7-3.1 4.3v21.1q0 1.2-0.3 2.4c0.8 0 1.6 0 2.4-0.1 0.8 0 1.6 0 2.4-0.1v3.1h-15.4v-2.2z"/>
			<path class="s0" d="m407.6 123c-1 0-2-0.4-2.8-1.3-0.8-0.8-1.2-1.9-1.2-3.1 0-1.2 0.4-2.3 1.2-3.2 0.8-0.9 1.8-1.3 2.8-1.3 1 0 2.1 0.4 2.9 1.3 0.8 0.9 1.2 1.9 1.2 3.2 0 1.3-0.4 2.3-1.2 3.1-0.8 0.9-1.8 1.3-2.9 1.3zm-7.2 43.4c1.5 0 2.6-0.4 3.2-1.2 0.6-0.8 0.9-1.8 1-3.2 0-1.4 0.1-3 0.1-4.8v-19.4c0-0.7 0.1-1.6 0.2-2.6-0.9 0-1.8 0.1-2.7 0.2-0.9 0-1.8 0.1-2.7 0.1v-3.1c2.2 0 3.9 0 5.1-0.3 1.2-0.2 2.1-0.4 2.7-0.7 0.6-0.3 1.1-0.6 1.5-1h2.2v33q0 1.2-0.3 2.4c0.8 0 1.6 0 2.4-0.1 0.8 0 1.6 0 2.4-0.1v3.1h-15.3v-2.2h0.2z"/>
			<path class="s0" d="m444.2 168.6c-0.1-0.8-0.2-1.6-0.3-2.2 0-0.6-0.1-1.3-0.2-2-1.7 1.7-3.5 3-5.5 4q-3 1.5-6.3 1.5c-3.8 0-6.6-0.9-8.5-2.6-1.8-1.7-2.8-3.8-2.8-6.3 0-2.5 0.7-4.3 2.1-6 1.4-1.7 3.3-3 5.5-4.1 2.3-1.1 4.7-1.9 7.4-2.4 2.7-0.5 5.3-0.8 7.8-0.7v-4.6c0-1.7-0.1-3.4-0.4-4.9-0.3-1.5-0.9-2.8-1.9-3.8-1-1-2.6-1.5-4.8-1.6-1.4 0-2.9 0.2-4.5 0.8-1.5 0.6-2.6 1.6-3.3 3.1 0.4 0.4 0.7 0.9 0.8 1.4 0.1 0.5 0.2 1 0.2 1.5 0 0.5-0.2 1.3-0.7 2.1-0.5 0.8-1.4 1.1-2.6 1.1-1.2 0-1.8-0.4-2.4-1.1-0.5-0.7-0.8-1.6-0.8-2.6 0-1.7 0.6-3.2 1.9-4.6 1.3-1.3 3-2.4 5.3-3.2 2.2-0.8 4.8-1.2 7.6-1.2q6.3 0 9.3 3.3c2 2.2 3 5.7 2.9 10.5v19.3c0 0.8 0 1.7-0.2 2.7 0.9 0 1.8 0 2.7-0.1 0.9 0 1.8 0 2.7-0.1v3.1h-10.7zm-0.7-18.3c-1.7 0-3.5 0.3-5.4 0.6-1.9 0.4-3.6 0.9-5.2 1.7-1.6 0.7-2.8 1.7-3.8 3-1 1.2-1.4 2.7-1.4 4.5 0 1.8 0.7 3.2 1.8 4.2 1.1 0.9 2.5 1.4 4 1.4 1.5 0 3.8-0.4 5.4-1.2q2.3-1.2 4.5-3.3v-10.8"/>
			<path class="s0" d="m260.5 233.8v-2.5c1.9-0.1 3.2-0.5 3.9-1.3 0.7-0.8 1.1-1.8 1.2-3.2 0-1.4 0.1-2.9 0.1-4.7v-35.3c0-0.9 0-1.8 0.2-2.5-0.9 0-1.8 0-2.7 0.1-0.9 0-1.8 0.1-2.7 0.1v-3.3c2.8 0 5.6 0 8.5-0.2h8.6c4.8 0 8.7 0.6 11.7 1.7 3 1.1 5.2 2.6 6.6 4.6q2.1 3 2.1 7.2c0 2.8-0.3 3.9-1.1 6q-1.2 3-4.2 5.4-3 2.4-8.7 3.6c1 0.7 1.9 1.6 2.6 2.7 0.7 1.1 1.6 2.4 2.5 3.8l5.1 8c0.8 1.3 1.7 2.6 2.5 3.6 0.8 1.1 1.7 1.9 2.8 2.5q1.5 0.9 3.9 0.9v2.5h-9.4c-1.4-1.3-2.7-2.6-3.6-3.9-1-1.3-2-2.8-3-4.4l-5-8c-0.6-1-1.4-2.3-2.2-3.6-0.8-1.4-1.8-2.5-2.8-3.5h-5.1v18c0 1 0 1.8-0.2 2.4 0.6 0 1.2 0 1.8-0.1 0.6 0 1.2 0 1.8-0.1h1.8v3.3h-16.8zm16.4-26.2c2.7 0 5.2-0.5 7.2-1.3 2.1-0.8 3.7-2.1 4.9-3.8q1.8-2.6 1.8-6.9c0-2.9-0.3-3.6-0.8-5q-0.8-2.1-2.4-3.6c-1.1-0.9-2.5-1.7-4.2-2.1-1.7-0.5-3.7-0.7-6-0.7-2.3 0-3.1 0.4-3.9 1.1-0.7 0.7-1.1 1.8-1.2 3.1 0 1.3-0.1 2.9-0.1 4.7v14.4c0.8 0 1.6 0.1 2.3 0.1z"/>
			<path class="s0" d="m315.2 188.2c-1 0-2-0.4-2.8-1.3-0.8-0.8-1.2-1.9-1.2-3.1 0-1.2 0.4-2.3 1.2-3.2 0.8-0.9 1.8-1.3 2.8-1.3 1 0 2.1 0.4 2.9 1.3 0.8 0.9 1.2 1.9 1.2 3.2 0 1.3-0.4 2.3-1.2 3.1-0.8 0.8-1.8 1.3-2.9 1.3zm-7.2 43.4c1.5 0 2.6-0.4 3.2-1.2 0.6-0.8 0.9-1.8 1-3.2 0.1-1.4 0.2-3 0.2-4.8v-19.4c0-0.7 0.1-1.6 0.2-2.6-0.9 0-1.8 0.1-2.7 0.2-0.9 0-1.8 0-2.7 0.1v-3.1c2.2 0 3.9 0 5.1-0.3 1.2-0.2 2.1-0.4 2.7-0.7 0.6-0.3 1.1-0.6 1.5-1h2.2v33q0 1.2-0.3 2.4c0.8 0 1.6 0 2.4-0.1 0.8 0 1.6 0 2.4-0.1v3.1h-15.3v-2.2z"/>
			<path class="s0" d="m346.1 235c-3.3 0-6.4-0.8-9.2-2.3-2.8-1.5-5.1-3.7-6.7-6.6-1.7-2.9-2.5-6.3-2.5-10.4 0-4.1 0.5-5.1 1.4-7.6 0.9-2.4 2.3-4.7 4-6.6 1.7-2 3.8-3.5 6.2-4.7 2.4-1.1 5-1.7 7.9-1.7 2.9 0 5.2 0.4 7.3 1.3 2.1 0.8 3.7 2 4.8 3.4 1.1 1.4 1.7 2.9 1.7 4.6 0 1.7-0.3 2-0.9 2.8-0.6 0.8-1.5 1.2-2.6 1.2-1.1 0-2.1-0.3-2.7-1.2-0.5-0.8-0.8-1.6-0.8-2.2 0-0.6 0-1 0.2-1.5 0.1-0.5 0.5-1 0.9-1.5q-0.6-1.8-2.1-2.7c-1-0.6-2-0.9-3.1-1.1q-1.7-0.3-2.7-0.3c-3.4 0-6.3 1.4-8.6 4.1-2.3 2.7-3.5 6.7-3.5 11.9 0 5.2 0.5 6.3 1.6 8.9 1.1 2.6 2.6 4.6 4.5 6.1 1.9 1.5 4.2 2.2 6.7 2.2 2.5 0 4.6-0.6 6.7-1.9 2.1-1.2 3.8-2.8 5-4.6l1.9 1.5c-1.3 2.1-2.9 3.8-4.7 5.1-1.8 1.3-3.7 2.2-5.6 2.8q-2.9 0.9-5.4 0.9"/>
			<path class="s0" d="m385.5 235c-3.3 0-6.4-0.8-9.2-2.3-2.8-1.5-5.1-3.7-6.7-6.6-1.7-2.9-2.5-6.3-2.5-10.4 0-4.1 0.5-5.1 1.4-7.6 0.9-2.4 2.3-4.7 4-6.6 1.7-2 3.8-3.5 6.2-4.7 2.4-1.1 5-1.7 7.9-1.7 2.9 0 5.2 0.4 7.3 1.3 2.1 0.8 3.7 2 4.8 3.4 1.1 1.4 1.7 2.9 1.7 4.6 0 1.7-0.3 2-0.9 2.8-0.6 0.8-1.5 1.2-2.6 1.2-1.1 0-2.1-0.3-2.7-1.2-0.5-0.8-0.8-1.6-0.8-2.2 0-0.6 0-1 0.2-1.5 0.1-0.5 0.5-1 0.9-1.5q-0.6-1.8-2.1-2.7c-1-0.6-2-0.9-3.1-1.1q-1.7-0.3-2.7-0.3c-3.4 0-6.3 1.4-8.6 4.1-2.3 2.7-3.5 6.7-3.5 11.9 0 5.2 0.5 6.3 1.6 8.9 1.1 2.6 2.6 4.6 4.5 6.1 1.9 1.5 4.2 2.2 6.7 2.2 2.5 0 4.6-0.6 6.7-1.9 2.1-1.2 3.8-2.8 5-4.6l1.9 1.5c-1.3 2.1-2.9 3.8-4.7 5.1-1.8 1.3-3.7 2.2-5.6 2.8q-2.9 0.9-5.4 0.9"/>
			<path class="s0" d="m414.4 188.2c-1 0-2-0.4-2.8-1.3-0.8-0.8-1.2-1.9-1.2-3.1 0-1.2 0.4-2.3 1.2-3.2 0.8-0.9 1.8-1.3 2.8-1.3 1 0 2.1 0.4 2.9 1.3 0.8 0.9 1.2 1.9 1.2 3.2 0 1.3-0.4 2.3-1.2 3.1-0.8 0.8-1.8 1.3-2.9 1.3zm-7.3 43.4c1.5 0 2.6-0.4 3.2-1.2 0.6-0.8 0.9-1.8 1-3.2 0.1-1.4 0.2-3 0.2-4.8v-19.4c0-0.7 0.1-1.6 0.2-2.6-0.9 0-1.8 0.1-2.7 0.2-0.9 0-1.8 0-2.7 0.1v-3.1c2.2 0 3.9 0 5.1-0.3 1.2-0.2 2.1-0.4 2.7-0.7 0.6-0.3 1.1-0.6 1.5-1h2.2v33q0 1.2-0.3 2.4c0.8 0 1.6 0 2.4-0.1 0.8 0 1.6 0 2.4-0.1v3.1h-15.3v-2.2z"/>
			<path class="s0" d="m229 86.5c-4.2-6.6-9.1-12.6-14.6-17.7-13.9-12.8-30.6-20.6-49.6-23.2-5.2-0.7-10.7-0.9-16.3-0.7-10.3 0.5-20.3 2.7-29.8 6.5-1.2 0.5-2.4 1-3.6 1.6-0.2 0-23.6 12.2-40.9 15.4-17 3.1-24.9-1.7-28.2-4.8-3.5-3.4-4.3-7.3-3.9-9.6 0.2-1.3-0.7-2.5-2-2.7-1.3-0.2-2.5 0.7-2.7 2-0.7 4.6 1.3 9.9 5.3 13.8 4.8 4.6 14.2 9.4 32.3 6.1 10.2-1.9 21.8-6.5 30.1-10.2 4-1.8 7.2-3.4 9.3-4.4 0.1 0 0.2 0 0.4-0.1 2.3-1.1 4.3-2 6.2-2.7 4.4-1.7 8.5-3 12.5-3.9 12.2-2.7 24.4-2.9 36.3-0.5 12 2.4 23 7.1 32.7 14 14.9 10.5 25.4 24.7 31.2 42 1.9 5.7 3.2 11.5 3.8 17.4 1.8 17.9-1.8 34.9-10.6 50.6-8.5 15.1-20.8 26.9-36.5 35-6.6 3.4-12.9 5.6-19.4 6.9-19.9 3.8-38.4 0.3-54.9-10.6-13.7-9-23.2-21.7-28.3-37.8-2.1-6.8-3.2-13.9-3.1-21.1 0.1-10.9 2.6-21.3 7.3-30.9 6.3-12.9 15.7-23.2 28-30.6 5.7-3.4 11.2-5.9 17-7.4 10.7-2.9 21.4-2.8 31.8 0.2 14.2 4.1 25.3 12.3 33.1 24.5 4.1 6.4 6.8 13.5 8 20.8 2.4 14.5-0.4 28.2-8.2 40.7-4.6 7.5-10.9 13.7-18.5 18.6-4.8 3-9.3 5.1-13.9 6.4-9.5 2.7-18.8 2.4-27.6-0.8-13.1-4.7-22.2-13.6-27.1-26.4-2-5.4-2.9-11.1-2.6-16.9 0.6-12 5.3-22.4 14-30.8 5-4.9 10.6-8.3 16.7-10.1 7.9-2.4 15.6-1.9 23 1.6 8.6 4.1 14.2 10.7 16.7 19.8 2.3 8.7 1 17.1-4 24.9-2.8 4.5-6.8 8.1-11.7 10.8-5.3 2.9-10.3 3.5-15.4 1.8-6.4-2.2-10.3-6.5-11.7-13-1.1-5.2 0-10.1 3.4-14.5 2.2-2.9 4.8-4.8 7.8-5.8 1.8-0.6 4 0.3 4.9 2 1 2 0.6 4.2-1.1 5.4-0.4 0.3-0.8 0.5-1.2 0.7-0.3 0.2-0.7 0.4-1 0.6-3.2 2.1-4.7 5.1-4.3 8.7 0.3 2.9 1.9 5.4 4.4 6.8 2.5 1.5 5.5 1.7 8.1 0.6 5.2-2.3 9.1-5.9 11.5-10.8 3.7-7.5 3.4-15.1-1-22-4.3-6.9-10.9-10.5-19.5-10.5-8.6 0-8.4 1.3-13 4.1-7.7 4.6-13 11.2-15.8 19.4-4.2 12.6-2.2 24.1 6.1 34.3 7.2 8.8 16.9 13.2 28.9 13 7.2 0 14.1-2.4 21.2-7.1 10.8-7.1 17.9-17 21.2-29.3 3.6-13.7 1.6-26.8-6.1-38.9-5.7-9.1-13.9-15.6-24.2-19.4-11.1-4.1-22.4-4.2-33.7-0.5-6.3 2.1-12.5 5.5-18.2 10-7 5.5-12.6 12.2-16.7 19.8-5.6 10.4-8.1 21.5-7.6 33.1 0.4 8.9 2.8 17.5 6.9 25.5 2.8 5.3 6.1 10 9.9 13.9 12.9 13.3 28.8 19.9 47.4 19.7 10.1-0.1 20.1-2.8 29.8-8 5.6-3 10.4-6.3 14.6-10 16-14.1 25-32 26.6-53 0.8-10.6-0.7-21.3-4.6-31.8-2.2-5.9-5.2-11.5-8.9-16.8-6-8.5-13.6-15.6-22.5-21-9.4-5.7-19.7-9.2-30.6-10.6-11.8-1.4-23.5-0.2-34.9 3.7-4.7 1.6-9.4 3.7-14.3 6.5-4.2 2.4-8.3 5.1-12.2 8.2l-0.5 0.4c-0.4 0.3-0.8 0.6-1.2 1-11.3 9.4-19.9 21-25.6 34.4-4.9 11.6-7.4 23.8-7.2 36.2 0.1 10.4 2.1 20.6 5.8 30.4 2.4 6.3 5.5 12.3 9.2 17.9 4.2 6.2 9.3 12.1 15.3 17.4 8.1 7.1 17.5 12.7 28 16.5 10.2 3.8 20.9 5.6 31.7 5.6 10.8 0 21.3-1.9 31.4-5.6 1.9-0.7 3.9-1.5 5.9-2.4 0.8-0.4 2.8-1.3 2.9-1.4 5.8-2.9 23.9-11.6 38.4-14.3 17-3.1 24.9 1.7 28.2 4.8 3.5 3.4 4.3 7.3 3.9 9.7-0.2 1.3 0.7 2.5 2 2.7 0.5 0 0.9 0 1.3-0.2 0.7-0.3 1.3-1 1.4-1.8 0.7-4.6-1.3-9.9-5.3-13.8-4.8-4.6-14.2-9.4-32.3-6.1-17.3 3.2-38.6 14.1-41.3 15.5-4.9 2.2-10 4-15.2 5.4-8.6 2.2-17.4 3-26.2 2.5-11.8-0.7-23.1-3.7-33.6-8.9-8.8-4.4-16.6-10-23.2-16.9-5.3-5.5-9.9-11.7-13.5-18.5-3.3-6.1-5.7-12.4-7.3-18.8-4.1-16.5-3.3-33 2.4-49.1 4.2-12 11-22.7 20.1-32 2.2-2.3 4.6-4.4 7.3-6.6 5.7-4.6 12.1-8.6 19-11.7 3-1.4 6.1-2.4 9.5-3.5 5.7-1.8 11.8-2.8 18.2-3 14.7-0.5 28.5 3.2 40.9 10.8 8.4 5.2 15.5 11.9 21.1 20.1 3.2 4.7 5.9 9.8 7.9 15.4 1.8 4.8 3 9.6 3.6 14.2 2.6 19.7-2.2 37.9-14.3 54-6 7.9-13.6 14.5-22.7 19.5-5.8 3.2-11.3 5.3-16.7 6.5-16.2 3.5-31.3 1-44.9-7.6-13.3-8.4-21.8-20.4-25.3-35.8-3.4-15.1-0.8-29.8 7.7-43.4 4.6-7.4 10.8-13.7 18.4-18.5 5.1-3.2 10-5.4 14.9-6.7 9.8-2.5 19.5-2 28.7 1.8 10.3 4.2 18.1 11.3 23.1 21.2 2.9 5.8 4.5 12 4.6 18.5 0.2 9-2.1 17.3-6.9 24.8-6.1 9.6-14.4 16.1-24.6 19.2-8 2.4-16 1.6-23.6-2.4-7.9-4.1-13.1-10.6-15.4-19.1-2.3-8.6-1-17 3.9-24.8 3-4.8 7.3-8.7 12.6-11.4 5.2-2.7 10.3-3 15.4-1.1 5.5 2.1 9.1 6 10.6 11.6 1.6 5.6 0.5 10.8-3.1 15.6-2.2 2.9-4.8 4.8-7.9 5.8-2 0.6-4.3-0.6-5.1-2.8-0.7-1.9 0.4-4.4 2.1-5.2 2.1-1 3.6-2.3 4.5-4 1.6-2.9 1.7-5.8 0.3-8.6-2.2-4.3-7.3-6.2-11.6-4.3-5.7 2.4-9.8 6.5-12.1 12.1-3 7.2-2.5 14.2 1.6 20.7 4.2 6.6 10.5 10.2 18.7 10.5 4.5 0.2 9.1-1.2 13.9-4.1 8.5-5.2 14-12.6 16.5-21.9 2.9-10.9 1-21.1-5.7-30.3-8.7-11.9-24.2-17.3-38.7-13.2-4.8 1.3-9.5 3.6-14 6.8-11.3 8.1-18.2 18.9-20.6 32.3-2.4 13.7 0.6 26.4 9.1 37.9q8.3 11.1 21.6 16.2c12 4.5 24.3 4.5 36.5-0.2 4-1.5 8-3.6 11.8-6.2 9.2-6.2 16.4-14.2 21.3-23.8 2.4-4.6 4.1-8.9 5.2-13.3 3.2-12.3 2.6-24.6-1.6-36.5-2.1-6-5.2-11.8-9.3-17.1-5.4-7-12-12.6-19.6-16.6-17-9-34.9-10.2-53.1-3.6q-9.6 3.4-18.6 10.2c-13.3 10-22.7 23-27.8 38.7-3.2 9.7-4.3 20-3.3 30.6 0.5 5.2 1.6 10.6 3.3 15.8 2.6 8 6.4 15.3 11.2 21.8 9.3 12.4 21.4 21.3 36 26.3 17.2 5.9 34.8 5.8 52.3-0.5 1.9-0.7 3.7-1.4 5.6-2.2 4.6-2.1 9.2-4.6 13.8-7.8 8.4-5.7 15.7-12.6 21.7-20.6 10.4-13.9 16.5-29.5 18.1-46.6 1.3-13.8-0.7-27.3-5.8-40.4-2-5.1-4.5-10-7.4-14.7"/>
			<path class="s1" d="m229 86.5c-4.2-6.6-9.1-12.6-14.6-17.7-13.9-12.8-30.6-20.6-49.6-23.2-5.2-0.7-10.7-0.9-16.3-0.7-10.3 0.5-20.3 2.7-29.8 6.5-1.2 0.5-2.4 1-3.6 1.6-0.2 0-23.6 12.2-40.9 15.4-17 3.1-24.9-1.7-28.2-4.8-3.5-3.4-4.3-7.3-3.9-9.6 0.2-1.3-0.7-2.5-2-2.7-1.3-0.2-2.5 0.7-2.7 2-0.7 4.6 1.3 9.9 5.3 13.8 4.8 4.6 14.2 9.4 32.3 6.1 10.2-1.9 21.8-6.5 30.1-10.2 4-1.8 7.2-3.4 9.3-4.4 0.1 0 0.2 0 0.4-0.1 2.3-1.1 4.3-2 6.2-2.7 4.4-1.7 8.5-3 12.5-3.9 12.2-2.7 24.4-2.9 36.3-0.5 12 2.4 23 7.1 32.7 14 14.9 10.5 25.4 24.7 31.2 42 1.9 5.7 3.2 11.5 3.8 17.4 1.8 17.9-1.8 34.9-10.6 50.6-8.5 15.1-20.8 26.9-36.5 35-6.6 3.4-12.9 5.6-19.4 6.9-19.9 3.8-38.4 0.3-54.9-10.6-13.7-9-23.2-21.7-28.3-37.8-2.1-6.8-3.2-13.9-3.1-21.1 0.1-10.9 2.6-21.3 7.3-30.9 6.3-12.9 15.7-23.2 28-30.6 5.7-3.4 11.2-5.9 17-7.4 10.7-2.9 21.4-2.8 31.8 0.2 14.2 4.1 25.3 12.3 33.1 24.5 4.1 6.4 6.8 13.5 8 20.8 2.4 14.5-0.4 28.2-8.2 40.7-4.6 7.5-10.9 13.7-18.5 18.6-4.8 3-9.3 5.1-13.9 6.4-9.5 2.7-18.8 2.4-27.6-0.8-13.1-4.7-22.2-13.6-27.1-26.4-2-5.4-2.9-11.1-2.6-16.9 0.6-12 5.3-22.4 14-30.8 5-4.9 10.6-8.3 16.7-10.1 7.9-2.4 15.6-1.9 23 1.6 8.6 4.1 14.2 10.7 16.7 19.8 2.3 8.7 1 17.1-4 24.9-2.8 4.5-6.8 8.1-11.7 10.8-5.3 2.9-10.3 3.5-15.4 1.8-6.4-2.2-10.3-6.5-11.7-13-1.1-5.2 0-10.1 3.4-14.5 2.2-2.9 4.8-4.8 7.8-5.8 1.8-0.6 4 0.3 4.9 2 1 2 0.6 4.2-1.1 5.4-0.4 0.3-0.8 0.5-1.2 0.7-0.3 0.2-0.7 0.4-1 0.6-3.2 2.1-4.7 5.1-4.3 8.7 0.3 2.9 1.9 5.4 4.4 6.8 2.5 1.5 5.5 1.7 8.1 0.6 5.2-2.3 9.1-5.9 11.5-10.8 3.7-7.5 3.4-15.1-1-22-4.3-6.9-10.9-10.5-19.5-10.5-8.6 0-8.4 1.3-13 4.1-7.7 4.6-13 11.2-15.8 19.4-4.2 12.6-2.2 24.1 6.1 34.3 7.2 8.8 16.9 13.2 28.9 13 7.2 0 14.1-2.4 21.2-7.1 10.8-7.1 17.9-17 21.2-29.3 3.6-13.7 1.6-26.8-6.1-38.9-5.7-9.1-13.9-15.6-24.2-19.4-11.1-4.1-22.4-4.2-33.7-0.5-6.3 2.1-12.5 5.5-18.2 10-7 5.5-12.6 12.2-16.7 19.8-5.6 10.4-8.1 21.5-7.6 33.1 0.4 8.9 2.8 17.5 6.9 25.5 2.8 5.3 6.1 10 9.9 13.9 12.9 13.3 28.8 19.9 47.4 19.7 10.1-0.1 20.1-2.8 29.8-8 5.6-3 10.4-6.3 14.6-10 16-14.1 25-32 26.6-53 0.8-10.6-0.7-21.3-4.6-31.8-2.2-5.9-5.2-11.5-8.9-16.8-6-8.5-13.6-15.6-22.5-21-9.4-5.7-19.7-9.2-30.6-10.6-11.8-1.4-23.5-0.2-34.9 3.7-4.7 1.6-9.4 3.7-14.3 6.5-4.2 2.4-8.3 5.1-12.2 8.2l-0.5 0.4c-0.4 0.3-0.8 0.6-1.2 1-11.3 9.4-19.9 21-25.6 34.4-4.9 11.6-7.4 23.8-7.2 36.2 0.1 10.4 2.1 20.6 5.8 30.4 2.4 6.3 5.5 12.3 9.2 17.9 4.2 6.2 9.3 12.1 15.3 17.4 8.1 7.1 17.5 12.7 28 16.5 10.2 3.8 20.9 5.6 31.7 5.6 10.8 0 21.3-1.9 31.4-5.6 1.9-0.7 3.9-1.5 5.9-2.4 0.8-0.4 2.8-1.3 2.9-1.4 5.8-2.9 23.9-11.6 38.4-14.3 17-3.1 24.9 1.7 28.2 4.8 3.5 3.4 4.3 7.3 3.9 9.7-0.2 1.3 0.7 2.5 2 2.7 0.5 0 0.9 0 1.3-0.2 0.7-0.3 1.3-1 1.4-1.8 0.7-4.6-1.3-9.9-5.3-13.8-4.8-4.6-14.2-9.4-32.3-6.1-17.3 3.2-38.6 14.1-41.3 15.5-4.9 2.2-10 4-15.2 5.4-8.6 2.2-17.4 3-26.2 2.5-11.8-0.7-23.1-3.7-33.6-8.9-8.8-4.4-16.6-10-23.2-16.9-5.3-5.5-9.9-11.7-13.5-18.5-3.3-6.1-5.7-12.4-7.3-18.8-4.1-16.5-3.3-33 2.4-49.1 4.2-12 11-22.7 20.1-32 2.2-2.3 4.6-4.4 7.3-6.6 5.7-4.6 12.1-8.6 19-11.7 3-1.4 6.1-2.4 9.5-3.5 5.7-1.8 11.8-2.8 18.2-3 14.7-0.5 28.5 3.2 40.9 10.8 8.4 5.2 15.5 11.9 21.1 20.1 3.2 4.7 5.9 9.8 7.9 15.4 1.8 4.8 3 9.6 3.6 14.2 2.6 19.7-2.2 37.9-14.3 54-6 7.9-13.6 14.5-22.7 19.5-5.8 3.2-11.3 5.3-16.7 6.5-16.2 3.5-31.3 1-44.9-7.6-13.3-8.4-21.8-20.4-25.3-35.8-3.4-15.1-0.8-29.8 7.7-43.4 4.6-7.4 10.8-13.7 18.4-18.5 5.1-3.2 10-5.4 14.9-6.7 9.8-2.5 19.5-2 28.7 1.8 10.3 4.2 18.1 11.3 23.1 21.2 2.9 5.8 4.5 12 4.6 18.5 0.2 9-2.1 17.3-6.9 24.8-6.1 9.6-14.4 16.1-24.6 19.2-8 2.4-16 1.6-23.6-2.4-7.9-4.1-13.1-10.6-15.4-19.1-2.3-8.6-1-17 3.9-24.8 3-4.8 7.3-8.7 12.6-11.4 5.2-2.7 10.3-3 15.4-1.1 5.5 2.1 9.1 6 10.6 11.6 1.6 5.6 0.5 10.8-3.1 15.6-2.2 2.9-4.8 4.8-7.9 5.8-2 0.6-4.3-0.6-5.1-2.8-0.7-1.9 0.4-4.4 2.1-5.2 2.1-1 3.6-2.3 4.5-4 1.6-2.9 1.7-5.8 0.3-8.6-2.2-4.3-7.3-6.2-11.6-4.3-5.7 2.4-9.8 6.5-12.1 12.1-3 7.2-2.5 14.2 1.6 20.7 4.2 6.6 10.5 10.2 18.7 10.5 4.5 0.2 9.1-1.2 13.9-4.1 8.5-5.2 14-12.6 16.5-21.9 2.9-10.9 1-21.1-5.7-30.3-8.7-11.9-24.2-17.3-38.7-13.2-4.8 1.3-9.5 3.6-14 6.8-11.3 8.1-18.2 18.9-20.6 32.3-2.4 13.7 0.6 26.4 9.1 37.9q8.3 11.1 21.6 16.2c12 4.5 24.3 4.5 36.5-0.2 4-1.5 8-3.6 11.8-6.2 9.2-6.2 16.4-14.2 21.3-23.8 2.4-4.6 4.1-8.9 5.2-13.3 3.2-12.3 2.6-24.6-1.6-36.5-2.1-6-5.2-11.8-9.3-17.1-5.4-7-12-12.6-19.6-16.6-17-9-34.9-10.2-53.1-3.6q-9.6 3.4-18.6 10.2c-13.3 10-22.7 23-27.8 38.7-3.2 9.7-4.3 20-3.3 30.6 0.5 5.2 1.6 10.6 3.3 15.8 2.6 8 6.4 15.3 11.2 21.8 9.3 12.4 21.4 21.3 36 26.3 17.2 5.9 34.8 5.8 52.3-0.5 1.9-0.7 3.7-1.4 5.6-2.2 4.6-2.1 9.2-4.6 13.8-7.8 8.4-5.7 15.7-12.6 21.7-20.6 10.4-13.9 16.5-29.5 18.1-46.6 1.3-13.8-0.7-27.3-5.8-40.4-2-5.1-4.5-10-7.4-14.7h-0.2z"/>
			<path class="s0" d="m40.8 64.5c0 0-41.4-31.2-27.6-45.5 13.5-14.1 27 13.3 27 13.3 0 0 8.7-27.4 24.7-17.8 19.9 12-24 49.9-24 49.9"/>
		</g>
	</g>
</svg>